<svg width="18" height="18" viewBox="0 0 18 18" fill="none" xmlns="http://www.w3.org/2000/svg">
<path d="M17.1099 5.30975C17.0985 3.51344 16.2976 2.1504 14.7479 1.24307C14.0659 0.843621 13.3123 0.670797 12.5219 0.670389C10.027 0.668351 7.53204 0.662237 5.03708 0.672019C3.00639 0.679764 1.30994 1.91929 0.667554 3.85501C0.57299 4.14033 0.538344 4.44604 0.476388 4.74237C0.465382 4.79495 0.456415 4.84794 0.446632 4.90052V13.1024C0.491469 13.3518 0.515925 13.607 0.583995 13.8499C1.10084 15.6947 2.29961 16.8279 4.16848 17.2501C4.336 17.288 4.50842 17.306 4.67839 17.3333H12.8819C13.1317 17.2885 13.3869 17.264 13.6302 17.1959C15.473 16.6799 16.6094 15.4832 17.0252 13.6163C17.092 13.3176 17.1091 13.0029 17.1099 12.6956C17.1165 10.2336 17.1254 7.77169 17.1099 5.30975ZM8.78746 13.5687C6.27824 13.5829 4.21087 11.5188 4.21209 9.00062C4.21331 6.48488 6.24686 4.44848 8.77279 4.43422C11.282 4.41995 13.3494 6.48366 13.3482 9.00184C13.3469 11.5176 11.3134 13.554 8.78746 13.5687ZM13.6237 5.54657C12.8696 5.54413 12.2354 4.90908 12.2358 4.15664C12.2358 3.40175 12.868 2.77241 13.6257 2.77322C14.3875 2.77363 15.0116 3.39849 15.0096 4.15908C15.0079 4.91723 14.377 5.54902 13.6237 5.54657Z" fill="#555555"/>
<path d="M0.446632 13.1027C0.491469 13.3521 0.515925 13.6073 0.583995 13.8502C1.10084 15.695 2.29961 16.8282 4.16848 17.2505C4.336 17.2884 4.50842 17.3063 4.67839 17.3336C3.26767 17.3336 1.85695 17.3336 0.446632 17.3336C0.446632 15.9233 0.446632 14.513 0.446632 13.1027Z" fill="white"/>
<path d="M12.3638 9.00926C12.3573 10.991 10.7399 12.5974 8.76462 12.5844C6.78611 12.5713 5.18992 10.9654 5.19645 8.99377C5.20297 7.0124 6.82075 5.40521 8.79601 5.41866C10.7745 5.43171 12.3703 7.03767 12.3638 9.00926Z" fill="#555555"/>
<path d="M14.0248 4.15555C14.0256 4.37484 13.8401 4.56152 13.6233 4.5603C13.4085 4.55908 13.2189 4.36587 13.2222 4.15147C13.2259 3.94074 13.4069 3.76058 13.6188 3.75772C13.841 3.75487 14.024 3.93422 14.0248 4.15555Z" fill="#555555"/>
</svg>
