<svg width="48" height="48" viewBox="0 0 48 48" fill="none" xmlns="http://www.w3.org/2000/svg">
<rect x="1" y="1" width="46" height="46" rx="23" stroke="#FF782D" stroke-width="2"/>
<path fill-rule="evenodd" clip-rule="evenodd" d="M23.1667 17.3332C19.945 17.3332 17.3333 19.9448 17.3333 23.1665C17.3333 26.3882 19.945 28.9998 23.1667 28.9998C26.3883 28.9998 29 26.3882 29 23.1665C29 19.9448 26.3883 17.3332 23.1667 17.3332ZM15.6667 23.1665C15.6667 19.0244 19.0245 15.6665 23.1667 15.6665C27.3088 15.6665 30.6667 19.0244 30.6667 23.1665C30.6667 27.3086 27.3088 30.6665 23.1667 30.6665C19.0245 30.6665 15.6667 27.3086 15.6667 23.1665Z" fill="#FF782D"/>
<path fill-rule="evenodd" clip-rule="evenodd" d="M27.2858 27.2856C27.6112 26.9601 28.1388 26.9601 28.4643 27.2856L32.0893 30.9106C32.4147 31.236 32.4147 31.7637 32.0893 32.0891C31.7638 32.4145 31.2362 32.4145 30.9108 32.0891L27.2858 28.4641C26.9603 28.1387 26.9603 27.611 27.2858 27.2856Z" fill="#FF782D"/>
</svg>
