<svg width="19" height="14" viewBox="0 0 19 14" fill="none" xmlns="http://www.w3.org/2000/svg">
<path d="M18.6484 2.72926C18.4479 1.62179 17.7711 0.910872 16.7129 0.717323C16.2762 0.637155 15.8316 0.578746 15.3881 0.558704C13.5073 0.473669 11.6256 0.406957 9.74424 0.333374C9.74367 0.352843 9.7431 0.372313 9.74253 0.391782C9.3099 0.391782 8.87699 0.385483 8.44466 0.392928C6.65089 0.422991 4.85684 0.442746 3.07252 0.6655C1.96276 0.80379 1.194 1.46375 0.962948 2.56091C0.833819 3.17362 0.763386 3.8018 0.712422 4.42683C0.603335 5.76363 0.576422 7.10473 0.671478 8.44355C0.730459 9.27157 0.806047 10.1022 0.943765 10.9202C1.12443 11.9916 1.86284 12.6999 2.90245 12.8542C3.51803 12.9456 4.13962 13.0234 4.76092 13.0438C6.66807 13.1056 8.57636 13.1629 10.4844 13.1723C12.3864 13.1821 14.2892 13.1368 16.1838 12.9378C16.6722 12.8863 17.1535 12.8084 17.5804 12.535C18.2865 12.0829 18.6077 11.4035 18.6847 10.6055C18.7887 9.52582 18.894 8.44355 18.9295 7.36041C18.9808 5.81059 18.9252 4.26134 18.6484 2.72926ZM7.96708 9.51837V4.04545C9.55556 4.95851 11.1274 5.86213 12.7271 6.78177C11.1297 7.70027 9.55814 8.6036 7.96708 9.51837Z" fill="#555555"/>
</svg>
