<svg width="14" height="18" viewBox="0 0 14 18" fill="none" xmlns="http://www.w3.org/2000/svg">
<path d="M13.2168 6.27955C13.2215 7.55319 12.992 8.78296 12.4298 9.93376C11.8189 11.1831 10.9138 12.1429 9.58822 12.6282C8.57848 12.9987 7.54648 13.0898 6.53675 12.6066C6.27081 12.4797 6.02986 12.3015 5.76527 12.1388C5.67955 12.4682 5.58574 12.8097 5.50272 13.154C5.27728 14.0928 5.00595 15.0162 4.58748 15.8909C4.38094 16.3222 4.15888 16.7447 3.80251 17.0761C3.73568 17.1382 3.65941 17.1922 3.58045 17.2395C3.27739 17.4197 2.97636 17.336 2.81235 17.0255C2.64563 16.7096 2.61323 16.364 2.60379 16.0158C2.57274 14.8238 2.7894 13.6656 3.0722 12.5141C3.39146 11.2155 3.69249 9.91148 3.99554 8.60882C4.01579 8.52107 4.00567 8.41646 3.97799 8.32939C3.64862 7.28928 3.62297 6.26943 4.1906 5.29749C4.50311 4.76293 4.95263 4.40115 5.58371 4.30193C6.47398 4.16154 7.25962 4.80342 7.32509 5.70246C7.37302 6.35245 7.18943 6.95788 7.01866 7.56804C6.86005 8.13095 6.68794 8.68981 6.53 9.25273C6.44225 9.56523 6.45035 9.87706 6.61707 10.1666C6.90122 10.658 7.35614 10.8179 7.88868 10.77C8.51369 10.7147 8.97063 10.357 9.33848 9.87571C9.80893 9.26015 10.0695 8.55145 10.226 7.80157C10.384 7.0436 10.467 6.27888 10.355 5.5074C10.1748 4.26211 9.47955 3.41774 8.29028 3.03167C7.09021 2.64222 5.89081 2.69757 4.74879 3.2652C3.56492 3.85309 2.86499 4.83312 2.57679 6.10946C2.431 6.75809 2.404 7.41415 2.67128 8.04321C2.7651 8.26392 2.90279 8.4718 3.04926 8.66417C3.22407 8.89297 3.29494 9.12718 3.21732 9.40729C3.15185 9.64217 3.09988 9.88043 3.03238 10.1146C2.90009 10.5777 2.56936 10.7295 2.13199 10.5345C1.264 10.1477 0.724037 9.46264 0.425032 8.58722C-0.0622856 7.16239 0.0227588 5.75241 0.673415 4.39778C1.62983 2.40801 3.25039 1.26869 5.38797 0.829965C5.72073 0.761795 6.0636 0.738846 6.40176 0.693624C6.4382 0.688899 6.47398 0.676075 6.50975 0.666626H7.42161C7.60385 0.688225 7.78609 0.707798 7.96833 0.732097C9.5214 0.934583 10.8544 1.57579 11.8871 2.76776C12.7551 3.77007 13.2127 4.94584 13.2168 6.27955Z" fill="#FF782D"/>
</svg>
