<svg width="10" height="18" viewBox="0 0 10 18" fill="none" xmlns="http://www.w3.org/2000/svg">
<path d="M6.64121 4.78734C6.63088 5.3906 6.63904 5.99332 6.63904 6.6178C6.72499 6.62161 6.79625 6.62813 6.86805 6.62813C7.57358 6.62868 8.27965 6.62759 8.98572 6.62868C9.41328 6.62977 9.51882 6.73475 9.51936 7.1547C9.52045 7.96249 9.52099 8.77029 9.51936 9.57808C9.51827 9.95233 9.42525 10.047 9.04882 10.0486C8.32915 10.0519 7.61002 10.0497 6.89035 10.0497H6.64013V16.6763C6.64013 17.2753 6.58138 17.3329 5.97268 17.3329C5.19861 17.3329 4.42508 17.3335 3.65156 17.3324C3.22182 17.3318 3.12227 17.2334 3.12173 16.8069C3.12119 14.6555 3.12173 12.5035 3.12173 10.3516V10.0872C3.03905 10.0823 2.96779 10.0747 2.89653 10.0747C2.30632 10.0736 1.71557 10.0753 1.12536 10.0736C0.715753 10.072 0.61675 9.97681 0.615662 9.57101C0.612398 8.77681 0.612943 7.98262 0.615118 7.18842C0.616206 6.7663 0.713033 6.67165 1.13026 6.67111C1.71394 6.67056 2.29762 6.67111 2.8813 6.67111H3.12173C3.12173 6.57047 3.12064 6.49105 3.12173 6.41163C3.13587 5.63811 3.10813 4.86132 3.17341 4.09269C3.33877 2.15779 4.82653 0.757068 6.77068 0.684176C7.58391 0.653714 8.39878 0.671121 9.21365 0.673297C9.48291 0.674385 9.59823 0.790794 9.59987 1.06169C9.60422 1.86949 9.60422 2.67728 9.59987 3.48508C9.59823 3.75978 9.48509 3.86857 9.19026 3.87565C8.64085 3.8887 8.09089 3.88925 7.54148 3.89741C6.90395 3.9072 6.65264 4.14818 6.64121 4.78734Z" fill="#555555"/>
</svg>
