<svg width="17" height="18" viewBox="0 0 17 18" fill="none" xmlns="http://www.w3.org/2000/svg">
<path d="M15.766 15.9614C13.9105 13.254 12.0534 10.5475 10.197 7.84056C10.1728 7.8053 10.1506 7.76859 10.1203 7.72175C10.4455 7.3427 10.769 6.96527 11.0929 6.58803C12.7762 4.62749 14.4597 2.66677 16.143 0.70605C16.1535 0.693753 16.1618 0.679828 16.1712 0.666626H14.7417C12.9945 2.70113 11.2472 4.73582 9.4722 6.80269C9.45086 6.76417 9.43567 6.73108 9.41542 6.7016C8.05239 4.71339 6.689 2.72555 5.32597 0.737336C5.31096 0.715273 5.30029 0.690317 5.28745 0.666626H0.446594C0.48855 0.735347 0.527251 0.806238 0.572643 0.872428C2.61854 3.85673 4.66498 6.84067 6.71142 9.82479C6.73276 9.8559 6.7532 9.88773 6.78304 9.93276C6.61684 10.1277 6.44974 10.3246 6.28137 10.5207C4.37889 12.7362 2.47622 14.9516 0.573909 17.1673C0.528698 17.2201 0.488912 17.2778 0.446594 17.3333H1.87617C2.5236 16.5757 3.16976 15.8171 3.81845 15.0606C4.9717 13.7157 6.12657 12.3718 7.28072 11.0278C7.32286 10.9786 7.36626 10.9307 7.41654 10.8733C7.44909 10.9128 7.47803 10.9431 7.50154 10.9773C8.93238 13.0634 10.3629 15.1496 11.7932 17.2362C11.8143 17.2671 11.8313 17.3009 11.8503 17.3333H16.691C16.3828 16.8759 16.0777 16.4164 15.766 15.9614ZM14.5476 16.2972C13.9306 16.2978 13.3135 16.2945 12.6965 16.3003C12.5816 16.3012 12.5109 16.2685 12.4438 16.1725C9.12968 11.4177 5.81281 6.66453 2.49647 1.9112C2.46591 1.86744 2.43806 1.82168 2.38923 1.74681C2.99452 1.74681 3.56816 1.7696 4.1389 1.73813C4.47654 1.71951 4.66263 1.83832 4.85378 2.11357C8.09217 6.77593 11.3434 11.4294 14.5917 16.0849C14.6339 16.1453 14.6746 16.2066 14.7299 16.2876C14.6505 16.292 14.5992 16.2971 14.5476 16.2972Z" fill="#555555"/>
</svg>
